<?xml version="1.0" encoding="utf-8"?>
<!-- Generator: Adobe Illustrator 15.0.0, SVG Export Plug-In . SVG Version: 6.00 Build 0)  -->
<!DOCTYPE svg PUBLIC "-//W3C//DTD SVG 1.1//EN" "http://www.w3.org/Graphics/SVG/1.1/DTD/svg11.dtd">
<svg version="1.1" id="Layer_1" xmlns="http://www.w3.org/2000/svg" xmlns:xlink="http://www.w3.org/1999/xlink" x="0px" y="0px"
	 width="24px" height="24px" viewBox="0 0 24 24" enable-background="new 0 0 24 24" xml:space="preserve">
<g>
	<path fill="#58595B" d="M7,19c0,0.549-0.45,1-1,1H5c-0.55,0-1-0.451-1-1v-1c0-0.551,0.45-1,1-1h1c0.55,0,1,0.449,1,1V19z"/>
	<path fill="#58595B" d="M11,19c0,0.549-0.45,1-1,1H9c-0.55,0-1-0.451-1-1v-1c0-0.551,0.45-1,1-1h1c0.55,0,1,0.449,1,1V19z"/>
	<path fill="#58595B" d="M15,19c0,0.549-0.45,1-1,1h-1c-0.55,0-1-0.451-1-1v-1c0-0.551,0.45-1,1-1h1c0.55,0,1,0.449,1,1V19z"/>
	<path fill="#EF4136" d="M19,19c0,0.549-0.45,1-1,1h-1c-0.55,0-1-0.451-1-1v-1c0-0.551,0.45-1,1-1h1c0.55,0,1,0.449,1,1V19z"/>
	<path fill="#58595B" d="M7,15c0,0.549-0.45,1-1,1H5c-0.55,0-1-0.451-1-1v-1c0-0.551,0.45-1,1-1h1c0.55,0,1,0.449,1,1V15z"/>
	<path fill="#58595B" d="M11,15c0,0.549-0.45,1-1,1H9c-0.55,0-1-0.451-1-1v-1c0-0.551,0.45-1,1-1h1c0.55,0,1,0.449,1,1V15z"/>
	<path fill="#58595B" d="M15,15c0,0.549-0.45,1-1,1h-1c-0.55,0-1-0.451-1-1v-1c0-0.551,0.45-1,1-1h1c0.55,0,1,0.449,1,1V15z"/>
	<path fill="#EF4136" d="M19,15c0,0.549-0.45,1-1,1h-1c-0.55,0-1-0.451-1-1v-1c0-0.551,0.45-1,1-1h1c0.55,0,1,0.449,1,1V15z"/>
	<path fill="#58595B" d="M15,11c0,0.549-0.45,1-1,1h-1c-0.55,0-1-0.451-1-1v-1c0-0.551,0.45-1,1-1h1c0.55,0,1,0.449,1,1V11z"/>
	<path fill="#EF4136" d="M19,11c0,0.549-0.45,1-1,1h-1c-0.55,0-1-0.451-1-1v-1c0-0.551,0.45-1,1-1h1c0.55,0,1,0.449,1,1V11z"/>
	<path fill="#58595B" d="M7,0C6.45,0,6,0.449,6,1v3c0,0.549,0.45,1,1,1s1-0.451,1-1V1C8,0.449,7.55,0,7,0z"/>
	<path fill="#58595B" d="M16,0c-0.55,0-1,0.449-1,1v3c0,0.549,0.45,1,1,1s1-0.451,1-1V1C17,0.449,16.55,0,16,0z"/>
	<path fill="#F7941E" d="M21,2h-3v2c0,1.104-0.896,2-2,2s-2-0.896-2-2V2H9v2c0,1.104-0.896,2-2,2S5,5.104,5,4V2H2C0.9,2,0,2.9,0,4
		v18c0,1.1,0.9,2,2,2h19c1.1,0,2-0.9,2-2V4C23,2.9,22.1,2,21,2z M21,22H2V7h19V22z"/>
</g>
</svg>
