<?xml version="1.0" encoding="utf-8"?>
<!-- Generator: Adobe Illustrator 15.0.0, SVG Export Plug-In . SVG Version: 6.00 Build 0)  -->
<!DOCTYPE svg PUBLIC "-//W3C//DTD SVG 1.1//EN" "http://www.w3.org/Graphics/SVG/1.1/DTD/svg11.dtd">
<svg version="1.1" id="Layer_1" xmlns="http://www.w3.org/2000/svg" xmlns:xlink="http://www.w3.org/1999/xlink" x="0px" y="0px"
	 width="20px" height="20px" viewBox="0 0 20 20" enable-background="new 0 0 20 20" xml:space="preserve">
<g>
	<path fill="#BCBEC0" d="M10,19.5c-5.238,0-9.5-4.262-9.5-9.5S4.762,0.5,10,0.5s9.5,4.262,9.5,9.5S15.238,19.5,10,19.5z"/>
	<path fill="#BCBEC0" d="M10,1c4.963,0,9,4.038,9,9c0,4.963-4.037,9-9,9c-4.962,0-9-4.037-9-9C1,5.038,5.038,1,10,1 M10,0
		C4.477,0,0,4.477,0,10s4.477,10,10,10s10-4.477,10-10S15.523,0,10,0L10,0z"/>
</g>
<g>
	<g>
		<path fill="#FFFFFF" d="M11.474,10.291c0.194,0.194,0.513,0.194,0.707,0s0.194-0.513,0-0.707L9.353,6.756
			c-0.194-0.194-0.513-0.194-0.707,0s-0.194,0.513,0,0.707L11.474,10.291z"/>
	</g>
	<g>
		<path fill="#FFFFFF" d="M12.181,10.291c0.194-0.194,0.194-0.513,0-0.707s-0.513-0.194-0.707,0l-2.828,2.828
			c-0.194,0.194-0.194,0.513,0,0.707s0.513,0.194,0.707,0L12.181,10.291z"/>
	</g>
</g>
</svg>
