<?xml version="1.0" encoding="utf-8"?>
<!-- Generator: Adobe Illustrator 15.0.0, SVG Export Plug-In . SVG Version: 6.00 Build 0)  -->
<!DOCTYPE svg PUBLIC "-//W3C//DTD SVG 1.1//EN" "http://www.w3.org/Graphics/SVG/1.1/DTD/svg11.dtd">
<svg version="1.1" id="Layer_1" xmlns="http://www.w3.org/2000/svg" xmlns:xlink="http://www.w3.org/1999/xlink" x="0px" y="0px"
	 width="20px" height="20px" viewBox="0 0 20 20" enable-background="new 0 0 20 20" xml:space="preserve">
<g>
	<path fill="#808285" d="M10,1c4.963,0,9,4.038,9,9c0,4.963-4.037,9-9,9c-4.962,0-9-4.037-9-9C1,5.038,5.038,1,10,1 M10,0
		C4.477,0,0,4.477,0,10s4.477,10,10,10s10-4.477,10-10S15.523,0,10,0L10,0z"/>
</g>
<g>
	<g>
		<path fill="#6D6E71" d="M8.526,9.709c-0.194-0.194-0.513-0.194-0.707,0s-0.194,0.513,0,0.707l2.828,2.828
			c0.194,0.194,0.513,0.194,0.707,0s0.194-0.513,0-0.707L8.526,9.709z"/>
	</g>
	<g>
		<path fill="#6D6E71" d="M7.819,9.709c-0.194,0.194-0.194,0.513,0,0.707s0.513,0.194,0.707,0l2.828-2.828
			c0.194-0.194,0.194-0.513,0-0.707s-0.513-0.194-0.707,0L7.819,9.709z"/>
	</g>
</g>
</svg>
