<?xml version="1.0" encoding="utf-8"?>
<!-- Generator: Adobe Illustrator 15.0.0, SVG Export Plug-In . SVG Version: 6.00 Build 0)  -->
<!DOCTYPE svg PUBLIC "-//W3C//DTD SVG 1.1//EN" "http://www.w3.org/Graphics/SVG/1.1/DTD/svg11.dtd">
<svg version="1.1" id="Layer_1" xmlns="http://www.w3.org/2000/svg" xmlns:xlink="http://www.w3.org/1999/xlink" x="0px" y="0px"
	 width="70px" height="185px" viewBox="0 0 70 185" enable-background="new 0 0 70 185" xml:space="preserve">
<g>
	<g>
		<path fill="#231F20" d="M64.885,111.334c0,2.591-2.119,4.709-4.709,4.709H10.264c-2.59,0-4.709-2.118-4.709-4.709V4.918
			c0-2.59,2.119-4.709,4.709-4.709h49.912c2.59,0,4.709,2.119,4.709,4.709V111.334z"/>
		<path fill="#231F20" d="M64.885,171.136c0,2.589-2.119,4.708-4.709,4.708H10.264c-2.59,0-4.709-2.119-4.709-4.708v-48.029
			c0-2.59,2.119-4.708,4.709-4.708h49.912c2.59,0,4.709,2.118,4.709,4.708V171.136z"/>
		<rect x="0.847" y="176.785" fill="#231F20" width="68.747" height="8.006"/>
		<path fill="#231F20" d="M58.951,139.115c0,2.59-2.119,4.711-4.709,4.711H16.195c-2.59,0-4.708-2.121-4.708-4.711v-29.192
			c0-2.591,2.118-4.71,4.708-4.71h38.047c2.59,0,4.709,2.119,4.709,4.71V139.115z"/>
		<rect x="0.847" y="36.938" fill="#231F20" width="0" height="0"/>
		<rect x="9.793" y="10.568" fill="#F1F2F2" width="50.854" height="92.996"/>
		<rect x="10.97" y="11.511" opacity="0.6" fill="#ED1C24" width="48.5" height="28.251"/>
		<rect x="10.97" y="41.052" opacity="0.6" fill="#BCBEC0" width="29.313" height="17.073"/>
		<rect x="35.219" y="59.693" opacity="0.6" fill="#BCBEC0" width="23.732" height="31.626"/>
	</g>
	<g>
		<rect x="2.949" y="84.363" fill="#6D6E71" width="0.416" height="19.752"/>
		<path fill="#6D6E71" d="M5.12,104.115c0,0.484-0.393,0.877-0.878,0.877c-0.484,0-0.877-0.393-0.877-0.877H2.949
			c0,0.714,0.579,1.293,1.293,1.293c0.715,0,1.293-0.579,1.293-1.293H5.12z"/>
		<rect x="4.873" y="101.153" fill="#6D6E71" width="0.682" height="2.962"/>
	</g>
	<path d="M4.702,83.527c-0.954,0-1.433,0.478-1.909,0c-0.479-0.476-0.479-1.431-0.477-2.386c-0.002-0.954-0.002-1.908,0.477-2.386
		c0.477-0.478,0.955,0,1.909,0c0.955,0,0.955-2.863,0.478-3.341s-2.865,0-2.865,0c-0.953,0.953-1.908,3.87-1.908,5.727
		c0,1.857,0.955,4.772,1.908,5.726c0,0,2.388,0.479,2.865,0C5.657,86.392,5.657,83.527,4.702,83.527L4.702,83.527z M4.702,83.527"/>
	<polygon points="5.555,79.014 3.681,78.225 4.188,79.881 5.555,79.881 	"/>
</g>
</svg>
