<?xml version="1.0" encoding="utf-8"?>
<!-- Generator: Adobe Illustrator 15.0.0, SVG Export Plug-In . SVG Version: 6.00 Build 0)  -->
<!DOCTYPE svg PUBLIC "-//W3C//DTD SVG 1.1 Tiny//EN" "http://www.w3.org/Graphics/SVG/1.1/DTD/svg11-tiny.dtd">
<svg version="1.1" baseProfile="tiny" id="Layer_1" xmlns="http://www.w3.org/2000/svg" xmlns:xlink="http://www.w3.org/1999/xlink"
	 x="0px" y="0px" width="24px" height="24px" viewBox="0 0 24 24" xml:space="preserve">
<path fill="#FFFFFF" d="M21,18.184V7c0-2.761-2.238-5-5-5s-5,2.239-5,5v6.022V17c0,1.655-1.344,3-3,3s-3-1.345-3-3v-3.978V5.816
	C6.162,5.403,7,4.305,7,3c0-1.657-1.343-3-3-3S1,1.343,1,3c0,1.305,0.838,2.403,2,2.816V17c0,2.761,2.238,5,5,5s5-2.239,5-5v-6.023
	V7V6.938c0-1.655,1.344-3,3-3s3,1.345,3,3V7v3.977v7.207c-1.162,0.413-2,1.512-2,2.816c0,1.657,1.343,3,3,3s3-1.343,3-3
	C23,19.695,22.162,18.597,21,18.184z M2,3c0-1.104,0.896-2,2-2s2,0.896,2,2S5.104,5,4,5S2,4.104,2,3z M20,23c-1.104,0-2-0.897-2-2
	s0.896-2,2-2s2,0.897,2,2S21.104,23,20,23z"/>
</svg>
