<?xml version="1.0" encoding="utf-8"?>
<!-- Generator: Adobe Illustrator 15.0.0, SVG Export Plug-In . SVG Version: 6.00 Build 0)  -->
<!DOCTYPE svg PUBLIC "-//W3C//DTD SVG 1.1//EN" "http://www.w3.org/Graphics/SVG/1.1/DTD/svg11.dtd">
<svg version="1.1" id="Layer_1" xmlns="http://www.w3.org/2000/svg" xmlns:xlink="http://www.w3.org/1999/xlink" x="0px" y="0px"
	 width="24px" height="24px" viewBox="0 0 24 24" enable-background="new 0 0 24 24" xml:space="preserve">
<path fill="#D1D3D4" d="M21,1c1.103,0,2,0.897,2,2v18c0,1.103-0.897,2-2,2H3c-1.103,0-2-0.897-2-2V3c0-1.103,0.897-2,2-2H21 M21,0H3
	C1.35,0,0,1.35,0,3v18c0,1.649,1.35,3,3,3h18c1.65,0,3-1.351,3-3V3C24,1.35,22.65,0,21,0L21,0z"/>
<path fill="#D1D3D4" d="M16,6c0,0.55-0.45,1-1,1H5C4.45,7,4,6.55,4,6l0,0c0-0.55,0.45-1,1-1h10C15.55,5,16,5.45,16,6L16,6z"/>
<path fill="#D1D3D4" d="M16,12c0,0.55-0.45,1-1,1H5c-0.55,0-1-0.45-1-1l0,0c0-0.55,0.45-1,1-1h10C15.55,11,16,11.45,16,12L16,12z"/>
<path fill="#D1D3D4" d="M16,18c0,0.55-0.45,1-1,1H5c-0.55,0-1-0.45-1-1l0,0c0-0.55,0.45-1,1-1h10C15.55,17,16,17.45,16,18L16,18z"/>
<path fill="#D1D3D4" d="M20,6c0,0.55-0.45,1-1,1l0,0c-0.55,0-1-0.45-1-1l0,0c0-0.55,0.45-1,1-1l0,0C19.55,5,20,5.45,20,6L20,6z"/>
<path fill="#D1D3D4" d="M20,12c0,0.55-0.45,1-1,1l0,0c-0.55,0-1-0.45-1-1l0,0c0-0.55,0.45-1,1-1l0,0C19.55,11,20,11.45,20,12L20,12z
	"/>
<path fill="#D1D3D4" d="M20,18c0,0.55-0.45,1-1,1l0,0c-0.55,0-1-0.45-1-1l0,0c0-0.55,0.45-1,1-1l0,0C19.55,17,20,17.45,20,18L20,18z
	"/>
</svg>
