<?xml version="1.0" encoding="utf-8"?>
<!-- Generator: Adobe Illustrator 15.0.0, SVG Export Plug-In . SVG Version: 6.00 Build 0)  -->
<!DOCTYPE svg PUBLIC "-//W3C//DTD SVG 1.1//EN" "http://www.w3.org/Graphics/SVG/1.1/DTD/svg11.dtd">
<svg version="1.1" id="Layer_1" xmlns="http://www.w3.org/2000/svg" xmlns:xlink="http://www.w3.org/1999/xlink" x="0px" y="0px"
	 width="24px" height="24px" viewBox="0 0 24 24" enable-background="new 0 0 24 24" xml:space="preserve">
<path fill="#939598" d="M21,1c1.103,0,2,0.897,2,2v18c0,1.103-0.897,2-2,2H3c-1.103,0-2-0.897-2-2V3c0-1.103,0.897-2,2-2H21 M21,0H3
	C1.35,0,0,1.35,0,3v18c0,1.649,1.35,3,3,3h18c1.65,0,3-1.351,3-3V3C24,1.35,22.65,0,21,0L21,0z"/>
<g>
	<path fill="#939598" d="M11.999,5c-2.866,0-5.19,2.324-5.19,5.191c0,4.26,5.19,8.809,5.19,8.809s5.192-4.316,5.192-8.808
		C17.191,7.324,14.867,5,11.999,5L11.999,5z M11.999,13.342c-1.771,0-3.207-1.436-3.207-3.208s1.436-3.209,3.207-3.209
		c1.772,0,3.209,1.437,3.209,3.209S13.771,13.342,11.999,13.342L11.999,13.342z M11.999,13.342"/>
</g>
</svg>
