<?xml version="1.0" encoding="utf-8"?>
<!-- Generator: Adobe Illustrator 15.0.0, SVG Export Plug-In . SVG Version: 6.00 Build 0)  -->
<!DOCTYPE svg PUBLIC "-//W3C//DTD SVG 1.1//EN" "http://www.w3.org/Graphics/SVG/1.1/DTD/svg11.dtd">
<svg version="1.1" id="Layer_1" xmlns="http://www.w3.org/2000/svg" xmlns:xlink="http://www.w3.org/1999/xlink" x="0px" y="0px"
	 width="24px" height="24px" viewBox="0 0 24 24" enable-background="new 0 0 24 24" xml:space="preserve">
<g>
	<path fill="#FFFFFF" d="M20,5H4C2.9,5,2,5.9,2,7v11c0,1.1,0.9,2,2,2h16c1.1,0,2-0.9,2-2V7C22,5.9,21.1,5,20,5z M18,7v1h-1v1h-1v1
		h-1v1h-1v1h-1v1h-1h-1v-1h-1v-1H9v-1H8V9H7V8H6V7H18z M20,17c0,0.55-0.45,1-1,1v-1h-1v1H6v-1H5v1c-0.55,0-1-0.45-1-1V8h1v1h1v1h1v1
		h1v1h1v1v1h1h1v1h1h1v-1h1h1v-1v-1h1v-1h1v-1h1V9h1V8h1V17z"/>
	<rect x="15" y="14" fill="#FFFFFF" width="1" height="1"/>
	<rect x="16" y="15" fill="#FFFFFF" width="1" height="1"/>
	<rect x="17" y="16" fill="#FFFFFF" width="1" height="1"/>
	<rect x="8" y="14" fill="#FFFFFF" width="1" height="1"/>
	<rect x="7" y="15" fill="#FFFFFF" width="1" height="1"/>
	<rect x="6" y="16" fill="#FFFFFF" width="1" height="1"/>
</g>
</svg>
